<svg width="30" height="30" viewBox="0 0 30 30" fill="none" xmlns="http://www.w3.org/2000/svg">
<path fill-rule="evenodd" clip-rule="evenodd" d="M28.125 3.75C28.125 3.25272 27.9275 2.77581 27.5758 2.42417C27.2242 2.07254 26.7473 1.875 26.25 1.875H3.75C3.25272 1.875 2.77581 2.07254 2.42417 2.42417C2.07254 2.77581 1.875 3.25272 1.875 3.75V26.25C1.875 26.7473 2.07254 27.2242 2.42417 27.5758C2.77581 27.9275 3.25272 28.125 3.75 28.125H26.25C26.7473 28.125 27.2242 27.9275 27.5758 27.5758C27.9275 27.2242 28.125 26.7473 28.125 26.25V3.75ZM0 3.75C0 2.75544 0.395088 1.80161 1.09835 1.09835C1.80161 0.395088 2.75544 0 3.75 0L26.25 0C27.2446 0 28.1984 0.395088 28.9016 1.09835C29.6049 1.80161 30 2.75544 30 3.75V26.25C30 27.2446 29.6049 28.1984 28.9016 28.9016C28.1984 29.6049 27.2446 30 26.25 30H3.75C2.75544 30 1.80161 29.6049 1.09835 28.9016C0.395088 28.1984 0 27.2446 0 26.25V3.75ZM21.5625 14.0625C21.8111 14.0625 22.0496 14.1613 22.2254 14.3371C22.4012 14.5129 22.5 14.7514 22.5 15C22.5 15.2486 22.4012 15.4871 22.2254 15.6629C22.0496 15.8387 21.8111 15.9375 21.5625 15.9375H10.7006L14.7262 19.9613C14.8134 20.0484 14.8826 20.1519 14.9297 20.2658C14.9769 20.3797 15.0012 20.5017 15.0012 20.625C15.0012 20.7483 14.9769 20.8703 14.9297 20.9842C14.8826 21.0981 14.8134 21.2016 14.7262 21.2887C14.6391 21.3759 14.5356 21.4451 14.4217 21.4922C14.3078 21.5394 14.1858 21.5637 14.0625 21.5637C13.9392 21.5637 13.8172 21.5394 13.7033 21.4922C13.5894 21.4451 13.4859 21.3759 13.3988 21.2887L7.77375 15.6637C7.68644 15.5767 7.61718 15.4732 7.56991 15.3593C7.52265 15.2454 7.49832 15.1233 7.49832 15C7.49832 14.8767 7.52265 14.7546 7.56991 14.6407C7.61718 14.5268 7.68644 14.4233 7.77375 14.3363L13.3988 8.71125C13.5748 8.53521 13.8135 8.43632 14.0625 8.43632C14.3115 8.43632 14.5502 8.53521 14.7262 8.71125C14.9023 8.88729 15.0012 9.12605 15.0012 9.375C15.0012 9.62395 14.9023 9.86271 14.7262 10.0387L10.7006 14.0625H21.5625Z" fill="white"/>
</svg>
