<?xml version="1.0" standalone="no"?>
<!DOCTYPE svg PUBLIC "-//W3C//DTD SVG 20010904//EN"
 "http://www.w3.org/TR/2001/REC-SVG-20010904/DTD/svg10.dtd">
<svg version="1.0" xmlns="http://www.w3.org/2000/svg"
 width="160.000000pt" height="125.000000pt" viewBox="0 0 160.000000 125.000000"
 preserveAspectRatio="xMidYMid meet">

<g transform="translate(0.000000,125.000000) scale(0.100000,-0.100000)"
fill="#000000" stroke="none">
<path d="M0 625 l0 -625 800 0 800 0 0 625 0 625 -800 0 -800 0 0 -625z m273
214 c12 -6 31 -20 42 -30 20 -17 21 -17 64 12 84 56 134 30 133 -69 l-1 -59
39 -17 c93 -41 97 -107 9 -148 -47 -22 -49 -25 -48 -63 2 -73 -1 -84 -23 -105
-27 -25 -55 -21 -110 16 l-38 24 -37 -24 c-56 -36 -85 -41 -113 -18 -22 18
-25 28 -23 81 l1 62 -47 23 c-61 31 -80 69 -54 105 11 14 37 35 60 45 l41 20
-1 57 c-2 43 2 62 17 78 21 23 56 27 89 10z m563 -20 c19 -16 18 -48 -3 -71
-15 -17 -15 -20 12 -48 21 -22 26 -33 18 -41 -8 -8 -19 -1 -39 25 -37 46 -62
47 -66 4 -2 -18 -7 -32 -13 -31 -14 4 -19 164 -5 173 15 10 80 2 96 -11z m504
-9 c0 -15 7 -20 25 -20 14 0 25 -4 25 -10 0 -5 -11 -10 -26 -10 -24 0 -25 -2
-22 -47 2 -38 7 -48 20 -48 10 0 18 -5 18 -10 1 -14 -32 -17 -49 -6 -16 10
-31 108 -23 148 5 28 32 31 32 3z m-348 -37 c10 -9 18 -24 18 -35 0 -15 -8
-18 -50 -18 -50 0 -57 -4 -41 -28 9 -15 37 -18 69 -8 27 9 30 -9 3 -24 -49
-25 -104 6 -104 58 0 61 62 94 105 55z m148 -2 c21 -40 7 -147 -15 -111 -4 7
-13 6 -27 -1 -30 -16 -68 3 -68 35 0 28 10 37 52 45 38 8 32 26 -10 26 -19 0
-32 5 -32 13 0 8 16 12 45 12 34 0 47 -5 55 -19z m147 2 c3 -8 -6 -10 -30 -6
-29 4 -37 2 -47 -17 -14 -26 -6 -66 15 -74 8 -3 26 -1 40 4 19 7 25 6 25 -4 0
-23 -57 -30 -85 -12 -30 20 -34 79 -8 108 19 21 84 22 90 1z m-485 -295 l33
-63 5 59 c3 35 10 61 18 64 9 3 12 -19 12 -87 0 -81 -2 -91 -18 -91 -12 0 -29
23 -54 73 l-37 72 0 -72 c-1 -58 -4 -73 -16 -73 -12 0 -15 17 -15 90 0 82 2
90 19 90 14 0 30 -19 53 -62z m378 47 c0 -8 -4 -15 -9 -15 -13 0 -22 16 -14
24 11 11 23 6 23 -9z m-90 -16 c0 -16 5 -20 20 -16 13 3 20 0 20 -9 0 -8 -9
-14 -20 -14 -17 0 -20 -7 -20 -45 0 -38 3 -45 20 -45 11 0 20 -4 20 -9 0 -14
-23 -19 -47 -10 -20 7 -23 16 -23 57 0 26 -5 53 -12 60 -9 9 -9 12 0 12 7 0
12 9 12 20 0 11 7 20 15 20 9 0 15 -9 15 -21z m-86 -25 c11 -10 16 -34 16 -70
0 -49 -2 -54 -22 -54 -13 0 -34 0 -47 -1 -66 -1 -63 74 4 87 19 3 35 10 35 14
0 13 -24 18 -53 13 -15 -3 -27 -1 -27 5 0 24 71 29 94 6z m456 -4 c11 -11 20
-29 20 -40 0 -17 -7 -20 -50 -20 -27 0 -50 -4 -50 -9 0 -20 31 -33 66 -28 25
4 34 2 31 -6 -5 -17 -48 -25 -78 -15 -49 17 -59 93 -16 123 29 20 53 19 77 -5z
m-280 -55 c0 -45 -4 -65 -12 -65 -9 0 -12 18 -11 62 2 76 1 68 13 68 6 0 10
-28 10 -65z m70 28 c19 -57 26 -59 45 -9 10 25 24 46 31 46 13 0 12 -6 -33
-117 -11 -28 -32 -10 -57 48 -30 71 -30 69 -12 69 8 0 20 -17 26 -37z"/>
<path d="M202 818 c-6 -6 -12 -36 -12 -66 l0 -54 41 7 c36 6 87 44 89 66 0 9
-57 48 -82 54 -13 3 -29 0 -36 -7z"/>
<path d="M415 814 c-55 -28 -61 -39 -36 -71 21 -26 84 -48 104 -36 11 6 9 81
-3 104 -13 23 -26 24 -65 3z"/>
<path d="M321 732 c-9 -16 -6 -19 19 -20 27 -1 29 2 20 19 -13 24 -26 24 -39
1z"/>
<path d="M260 645 l-25 -45 24 -45 c23 -43 30 -47 81 -47 49 0 58 4 78 41 28
49 27 53 -3 101 -24 38 -27 40 -78 40 -52 0 -53 0 -77 -45z m112 -12 c36 -32
17 -83 -32 -83 -48 0 -67 45 -33 82 20 22 41 23 65 1z"/>
<path d="M210 661 c0 -30 16 -33 28 -6 10 22 9 25 -8 25 -13 0 -20 -7 -20 -19z"/>
<path d="M442 655 c8 -19 14 -22 20 -13 14 22 9 38 -12 38 -17 0 -18 -3 -8
-25z"/>
<path d="M125 647 c-52 -30 -54 -62 -6 -94 45 -31 58 -29 74 10 11 25 11 39 2
66 -6 19 -16 36 -21 38 -5 1 -27 -8 -49 -20z"/>
<path d="M485 634 c-13 -31 -13 -40 0 -70 16 -40 30 -42 76 -11 51 34 49 60
-4 91 -24 14 -47 26 -50 26 -4 0 -13 -16 -22 -36z"/>
<path d="M211 542 c-7 -13 -8 -22 -2 -22 5 0 16 -3 25 -6 20 -8 21 6 2 31 -13
18 -14 18 -25 -3z"/>
<path d="M440 539 c-7 -11 -10 -23 -7 -25 8 -8 37 8 37 21 0 24 -19 26 -30 4z"/>
<path d="M195 491 c-7 -6 -6 -87 1 -105 10 -25 56 -19 93 12 l33 28 -26 31
c-18 21 -37 32 -61 35 -20 2 -38 2 -40 -1z"/>
<path d="M385 458 l-27 -32 31 -28 c58 -52 104 -31 99 44 -3 42 -4 43 -39 46
-31 3 -41 -2 -64 -30z"/>
<path d="M323 463 c16 -16 18 -16 34 0 16 16 15 17 -17 17 -32 0 -33 -1 -17
-17z"/>
<path d="M760 780 c0 -28 3 -31 28 -28 21 2 27 8 27 28 0 20 -6 26 -27 28 -25
3 -28 0 -28 -28z"/>
<path d="M917 756 c-5 -13 1 -16 29 -16 24 0 34 4 32 13 -7 19 -54 21 -61 3z"/>
<path d="M1067 713 c-17 -17 -6 -34 20 -31 36 4 45 38 10 38 -13 0 -27 -3 -30
-7z"/>
<path d="M952 423 c-32 -6 -25 -38 8 -38 18 0 26 6 28 23 2 12 0 21 -5 21 -4
-1 -18 -4 -31 -6z"/>
<path d="M1398 469 c-29 -16 -21 -29 18 -29 28 0 35 3 32 17 -4 21 -26 27 -50
12z"/>
</g>
</svg>
